<svg width="567.33753" height="478.01621" xmlns="http://www.w3.org/2000/svg" data-name="Layer 1">

 <g>
  <title>Layer 1</title>
  <path id="svg_1" fill="#2f2e41" d="m125.47522,44.71972c-3.52922,-12.86713 24.9356,-23.90094 32.41041,-13.539c1.03939,-1.47315 4.88056,-2.368 6.643,-1.91606a13.74418,13.74418 0 0 1 4.69075,2.67528c1.98838,1.52743 4.049,3.10909 5.26914,5.30532c1.22921,2.1872 1.419,5.16979 -0.23494,7.06776c-1.31053,1.50934 -5.17884,2.48546 -7.14913,2.88314c-1.37374,0.28018 -2.53064,0.50613 -3.5248,0.66881a6.73914,6.73914 0 0 1 -1.175,-4.45575a5.46972,5.46972 0 0 0 -2.386,4.01289c-0.02714,0.3344 11.10773,41.30387 11.10773,41.30387a24.28681,24.28681 0 0 1 -4.20271,1.88892a52.848,52.848 0 0 1 -6.55258,-14.2801a45.762,45.762 0 0 0 0.12654,10.1678a55.94778,55.94778 0 0 0 0.958,5.63069c-13.23171,2.856 -33.13345,1.91611 -41.79191,-10.231l-0.00436,-0.15087a2.067,2.067 0 0 0 -3.993,-0.72082c-0.21008,0.53592 -0.40341,0.9998 -0.57594,1.36877c-2.5215,-9.02004 0.74122,-19.45897 10.3848,-37.67965z"/>
  <polygon id="svg_2" fill="#ffb6b6" points="187.875 456.283 197.734 456.2 202.098 417.287 187.548 417.41 187.875 456.283"/>
  <path id="svg_3" fill="#2f2e41" d="m217.52212,468.3512l-15.74576,-10.67986l-0.05942,-7.05495l-3.38609,0.22675l-10.49558,0.7235l-2.57316,0.17119l-1.86759,24.93457l7.396,-0.06707l1.26029,-6.991l3.43148,6.95557l19.6013,-0.16355a4.40843,4.40843 0 0 0 2.43855,-8.0551l-0.00002,-0.00005z"/>
  <polygon id="svg_4" fill="#ffb6b6" points="89.571 452.439 99.318 453.92 109.798 416.192 95.412 414.006 89.571 452.439"/>
  <path id="svg_5" fill="#2f2e41" d="m116.92929,469.05589l-13.85287,-13.04173l1.06012,-6.97509l-3.3792,-0.3131l-10.4775,-0.95007l-2.56775,-0.239l-5.79815,24.32287l7.313,1.10665l2.353,-6.70271l2.285,7.41171l19.37919,2.947a4.40843,4.40843 0 0 0 3.6851,-7.56645l0.00006,-0.00008z"/>
  <path id="svg_6" fill="#2f2e41" d="m183.34068,184.42074l27.95281,50.06412s-1.16636,102.9647 2.54851,106.7837s7.07835,7.24421 3.71487,7.21334s-7.43443,8.15323 -7.43443,8.15323l-6.957,77.36439l-17.543,0s-12.344,-45.623 -9.71291,-71.64l-20.7821,-95.07681s-14.93047,89.91339 -17.62125,92.60414s-4.31392,2.67163 -1.48427,5.372s0,8.80758 0,8.80758l-29.49756,61.22087l-16,-2.01786s2.77383,-49.97893 12.433,-71.43483l0,-101.39486c-0.7276,8.69349 33.30327,-79.29559 12.49294,-72.69149c6.5839,-2.08939 67.89039,-3.32752 67.89039,-3.32752z"/>
  <path id="svg_7" fill="#ffb6b6" d="m105.98701,270.81336a6.82106,6.82106 0 0 0 -0.70245,-9.48793a6.544,6.544 0 0 0 -0.87624,-0.63441l4.75113,-23.31742l-10.98351,-6.57368l-3.055,32.64564a6.80215,6.80215 0 0 0 1.56779,8.15507a6.50964,6.50964 0 0 0 9.183,-0.65062q0.05856,-0.06753 0.11528,-0.13665z"/>
  <path id="svg_8" fill="#ffb6b6" d="m276.90149,219.7619a6.82106,6.82106 0 0 1 -5.81566,-7.52944a6.54326,6.54326 0 0 1 0.22821,-1.05744l-19.1125,-14.177l3.78154,-12.2291l24.08207,22.25141a6.80214,6.80214 0 0 1 4.28133,7.1157a6.50963,6.50963 0 0 1 -7.2679,5.65052q-0.08871,-0.01112 -0.17709,-0.02465z"/>
  <circle id="svg_9" fill="#ffb6b6" r="23.18303" cy="59.32154" cx="147.59363"/>
  <path id="svg_10" fill="#2f2e41" d="m121.49432,34.40728"/>
  <polygon id="svg_11" fill="#ffb6b6" points="483.533 453.271 475.415 458.549 451.193 429.75 463.174 421.96 483.533 453.271"/>
  <path id="svg_12" fill="#2f2e41" d="m489.32559,461.55364l-24.96261,16.23156l-0.20526,-0.31565a11.59019,11.59019 0 0 1 3.39785,-16.0339l0.0006,-0.00039l2.31017,-6.42421l10.757,-2.07248l2.17906,-1.417l6.52319,10.03207z"/>
  <polygon id="svg_13" fill="#ffb6b6" points="344.417 467.102 334.734 467.101 330.128 429.753 344.419 429.754 344.417 467.102"/>
  <path id="svg_14" fill="#2f2e41" d="m344.75776,477.20301l-29.77576,-0.00113l0,-0.37652a11.59019,11.59019 0 0 1 11.58955,-11.58938l0.00072,0l5.43891,-4.12622l10.14781,4.12688l2.59924,0.00006l-0.00047,11.96631z"/>
  <path id="svg_15" fill="#2f2e41" d="m444.6427,236.64003l-86.82925,1.90912l-8.60664,10.7583s0.7443,-3.79306 0.08184,0.373s-17.41361,87.23032 -14.24713,90.01612s-6.00428,22.02 -6.6778,23.193s-7.93312,59.07023 0,63.831l2.98011,20.209l13.86635,0s13.89088,-16.07513 11.09541,-18.98919s5.19983,-12.60407 5.5055,-17.80015s3.22491,-28.7636 0.96312,-32.54239s-5.31937,-17.96 0.41839,-23.45773s32.49809,-73.0567 32.49809,-73.0567s7.77641,79.20236 7.75814,85.42135c-0.02376,8.08762 5.28725,4.08491 5.28725,11.185c0,1.43445 17.29368,38.30269 28.9164,49.82691l24.035,18.48846l11.09308,-8.31981l0,-12.0175s-10.28024,-22.29774 -13.86634,-25.88384s-16.82739,-14.5634 -16.82739,-19.58394s-6.23333,-6.76964 -2.04084,-13.42591s2.75806,-9.52514 1.32361,-12.394s1.28578,-120.41494 1.28578,-120.41494l1.98732,2.67484z"/>
  <circle id="svg_16" fill="#ffb6b6" r="26.23785" cy="36.10669" cx="408.43678"/>
  <path id="svg_17" fill="#ffb6b6" d="m429.39802,246.66819l7.38563,-22.23281l13.28931,2.44708l-8.6449,23.22807a7.84254,7.84254 0 1 1 -12.03,-3.44234l-0.00004,0z"/>
  <path id="svg_18" fill="#ffb6b6" d="m276.224,203.70199l18.09637,-14.8784l9.94172,9.15184l-19.69233,15.04961a7.84254,7.84254 0 1 1 -8.34578,-9.323l0.00002,-0.00005z"/>
  <path id="svg_19" fill="#2f2e41" d="m377.02134,31.51662c2.82874,0.87821 5.5558,1.39589 7.39539,-0.92442s1.35887,-4.9734 4.09519,-6.092a9.67876,9.67876 0 0 1 6.98863,0.32359c0.3975,0.14788 0.7858,0.31427 1.16478,0.48066c0.2126,-0.1849 0.42526,-0.36048 0.65636,-0.52693a8.33692,8.33692 0 0 1 5.9995,-1.46055a8.17993,8.17993 0 0 0 -3.633,3.46659c0.758,0.379 1.52526,0.758 2.3018,1.08156a22.69736,22.69736 0 0 0 20.25409,-1.53452c-3.03208,7.987 -0.67482,10.83421 3.77166,18.12792l0.17564,0.4252c-0.44371,-1.9135 5.3709,-4.12289 5.3709,-1.34962a33.12537,33.12537 0 0 1 -1.84885,8.31981c5.70367,-8.58793 9.06859,-18.6364 6.8592,-28.27813c-0.47146,-2.02449 -0.68406,-4.19686 -1.969,-5.84236c-1.28491,-1.63619 -3.65143,-2.59763 -5.51878,-1.6732a17.396,17.396 0 0 0 -27.99156,-12.47971c-2.31106,1.78412 -4.13214,4.12294 -6.19359,6.20289s-4.502,3.975 -7.38619,4.49269c-1.83034,0.32358 -3.89178,0.12943 -5.35239,1.285c-1.69171,1.34042 -1.71016,3.69769 -1.701,5.96254a8.32739,8.32739 0 0 1 4.68683,1.2849a8.14841,8.14841 0 0 0 -4.733,1.664a0.50823,0.50823 0 0 0 -0.07391,0.05546c-0.49922,3.80861 -0.29581,4.61291 -3.3187,6.98863z"/>
  <path id="svg_22" fill="none" d="m186.882,155.03039c0.11108,2.27923 0.242,4.55993 0.394,6.82037l11.26147,0l-0.16064,-0.11114a121.19154,121.19154 0 0 0 -11.49483,-6.70923z"/>
  <path id="svg_23" fill="#fed701" d="m93.93626,248.54504l14.06518,0.69836l7.80573,-32.74383c17.946,-4.035 22.2027,-15.06934 28.65466,-13.17c28.62164,8.42591 62.63757,7.53272 51.0625,-4.04229c-4.74591,-4.74592 -7.10968,-20.50007 -8.24835,-37.43653l-87.3656,0l-5.97412,86.69429z"/>
  <polygon id="svg_24" fill="#fed701" points="198.537 161.851 260.993 205.057 270.992 195.141 236.689 161.851 198.537 161.851"/>
  <path id="svg_25" fill="#015abb" d="m208.52921,134.52203l-22.00545,-23.47593c0.00745,-0.24567 0.01209,-0.38575 0.01209,-0.38575l-0.67084,-0.317l-6.40094,-6.82868a19.86687,19.86687 0 0 0 -14.21124,-6.32605a20.38863,20.38863 0 0 0 -2.27344,0.09186l-3.39716,-8.32233l-28.41583,-6.02771l-5.64209,11.35682l-11.01691,6.37823a19.90078,19.90078 0 0 0 -6.907,3.99872l-1.07611,0.62305l0.07977,0.327a19.83782,19.83782 0 0 0 -5.77026,13.60449l-0.9137,42.49006l-0.00976,0.1419l87.3656,0c-0.152,-2.26044 -0.2829,-4.54114 -0.394,-6.82037a121.19154,121.19154 0 0 1 11.49481,6.70923l0.16064,0.11114l38.15186,0l-28.16004,-27.32868z"/>
  <path id="svg_26" fill="#fed701" d="m294.98676,181.88519c2.27094,4.48822 -0.91931,1.46 -4.48822,2.271c-3.56884,0.811 -1.83856,2.91986 -1.75756,6.02912s-12.19391,9.65173 -12.19391,9.65173c7.48907,2.67682 16.87048,13.68109 16.87048,13.68109s9.08459,-9.57068 10.73389,-10.571c1.64929,-1.00037 2.5686,-2.46027 7.78674,-4.27161c5.21814,-1.81128 3.0282,-3.19025 3.40686,-7.02942c0.3786,-3.83917 1.64923,-1.0003 8.97632,-4.54187s1.379,-2.18994 3.40686,-7.02948c2.028,-4.83954 1.379,-2.18994 7.976,-6.19116c3.96527,-2.405 7.90363,-5.937 13.38385,-12.03284l-41.81264,0c-7.71185,10.65321 -12.96295,18.70173 -12.28867,20.03444z"/>
  <path id="svg_27" fill="#015abb" d="m471.60648,151.78588c1.46534,-12.21081 -0.38806,-25.25134 -2.27172,-34.26721a21.71579,21.71579 0 0 0 -10.05811,-14.16748c-0.19122,-0.97931 -0.53076,-1.60571 -1.05237,-1.79114c-7.4577,-2.65118 -28.277,-14.89917 -28.277,-14.89917l-1.745,-14.00555l-37.67352,-1.81012l-9.6405,15.81567s-24.97168,2.51007 -24.50867,11.65161c-6.0476,7.54328 -32.9685,41.2486 -49.10412,63.53827l41.81268,0c3.63733,-4.0459 7.95258,-9.21905 13.41046,-15.94934c0.037,-0.04565 0.072,-0.09326 0.10889,-0.139c0.36664,5.45569 0.64917,10.91358 0.81714,16.08832l106.91445,0c0.40588,-3.03459 0.82385,-6.36851 1.26739,-10.06486z"/>
  <path id="svg_28" fill="#fed701" d="m470.33909,161.85076l-106.91449,0c0.47723,14.70325 0.02179,27.1012 -2.11847,30.51544c-3.00378,4.792 -8.08868,20.82911 -12.222,34.90961a17.99512,17.99512 0 0 0 17.8592,23.04614c25.64154,-0.84546 63.16418,-2.80151 70.47711,-7.09308a81.01443,81.01443 0 0 1 11.75751,2.58448s2.58789,-12.93958 3.4505,-14.66486c0.86267,-1.72528 0.86267,-3.4505 4.31317,-7.76373c3.45056,-4.31317 0.86261,-4.31317 -0.86261,-7.76373c-1.72528,-3.4505 0.86261,-1.72529 5.17584,-8.62641c4.31323,-6.90106 0,-2.58789 -0.86267,-7.76373c-0.86261,-5.17584 0,-2.58789 3.45056,-9.489c2.85914,-5.71822 4.53402,-13.22096 6.49635,-27.89113z"/>
  <path id="svg_29" fill="#2f2e41" d="m112.82195,46.52733c-3.52921,-12.86713 24.9356,-23.90094 32.41042,-13.539c1.03939,-1.47315 4.88056,-2.368 6.643,-1.91607a13.74437,13.74437 0 0 1 4.69075,2.67529c1.98838,1.52743 4.049,3.10908 5.26914,5.30532c1.22921,2.18719 1.419,5.16979 -0.235,7.06776c-1.31052,1.50934 -5.17883,2.48546 -7.14912,2.88314c-1.37374,0.28018 -2.53064,0.50613 -3.5248,0.6688a6.7391,6.7391 0 0 1 -1.175,-4.45574a5.46969,5.46969 0 0 0 -2.386,4.01289c-0.02714,0.3344 11.10773,41.30387 11.10773,41.30387a24.28681,24.28681 0 0 1 -4.20271,1.88892a52.84817,52.84817 0 0 1 -6.55258,-14.2801a45.762,45.762 0 0 0 0.12654,10.1678a55.94989,55.94989 0 0 0 0.958,5.63068c-13.23171,2.85606 -33.13344,1.91612 -41.7919,-10.231l-0.00436,-0.15087a2.067,2.067 0 0 0 -3.993,-0.72083c-0.21008,0.53593 -0.40341,0.99981 -0.57594,1.36878c-2.52146,-9.02004 0.74126,-19.45897 10.38483,-37.67964z"/>
  <path id="svg_30" fill="#003399" d="m276.94111,120.1171l0,0c-0.03377,0.0328 -0.06487,0.06731 -0.09825,0.10039a13.47172,13.47172 0 0 0 -18.874,-0.10235l0,0a13.47215,13.47215 0 0 0 -0.40092,18.92054l-0.00328,0.00319l0.1261,0.12984l0,0l18.64936,19.20183l19.33164,-18.77544l-0.05375,-0.05534c0.03249,-0.03093 0.06627,-0.05964 0.09853,-0.091l0,0a13.47433,13.47433 0 0 0 0.27811,-19.05355l0,0a13.47433,13.47433 0 0 0 -19.05354,-0.27811z"/>
 </g>
</svg>